<svg xmlns="http://www.w3.org/2000/svg" width="60" height="18" fill="none"><path fill="#32425F" fill-rule="evenodd" d="M12.117 16.797c-.917.483-1.892.998-3.22.998a8.897 8.897 0 1 1 8.898-8.898v8.439c-2.705-2.107-4.105-1.369-5.678-.54Zm.659-7.9a3.878 3.878 0 1 1-7.757 0 3.878 3.878 0 0 1 7.757 0ZM28.916 11.902h-.527c-.451 0-.907.02-1.367.063a5.63 5.63 0 0 0-1.23.238c-.36.117-.657.289-.89.514-.235.226-.352.523-.352.891 0 .235.054.435.163.603.109.167.247.3.414.401.167.1.36.172.577.213.218.042.427.063.628.063.836 0 1.476-.23 1.92-.69.443-.46.664-1.083.664-1.87v-.426Zm-7.553-5.345a7.208 7.208 0 0 1 2.572-1.581 8.813 8.813 0 0 1 2.999-.527c1.054 0 1.945.13 2.672.389.728.259 1.318.66 1.77 1.204.451.544.782 1.23.99 2.058.21.828.315 1.811.315 2.949v6.299h-3.765v-1.33h-.075c-.318.518-.799.92-1.443 1.204a5.13 5.13 0 0 1-2.095.427c-.502 0-1.02-.067-1.556-.201a4.556 4.556 0 0 1-1.468-.653 3.533 3.533 0 0 1-1.092-1.204c-.284-.502-.427-1.121-.427-1.857 0-.904.247-1.631.74-2.183.494-.553 1.13-.98 1.908-1.28a10.105 10.105 0 0 1 2.597-.603c.954-.1 1.882-.15 2.786-.15v-.2c0-.62-.218-1.076-.653-1.369-.435-.292-.97-.439-1.606-.439-.585 0-1.15.126-1.694.377a5.408 5.408 0 0 0-1.392.903l-2.083-2.233Zm21.732 1.982a4.585 4.585 0 0 0-1.18-.803 3.256 3.256 0 0 0-1.43-.326c-.385 0-.74.075-1.066.226-.327.15-.49.41-.49.778 0 .351.18.602.54.753.36.15.94.317 1.744.501.468.1.941.243 1.418.427a5.01 5.01 0 0 1 1.292.728c.385.301.694.669.929 1.104.234.435.351.954.351 1.556 0 .786-.159 1.451-.477 1.995a3.907 3.907 0 0 1-1.242 1.317 5.358 5.358 0 0 1-1.719.728 8.249 8.249 0 0 1-1.907.226c-1.02 0-2.02-.163-3-.49-.978-.326-1.793-.806-2.446-1.442l2.309-2.434c.368.401.82.736 1.355 1.003a3.765 3.765 0 0 0 1.706.402c.335 0 .666-.08.992-.239.326-.159.49-.439.49-.84 0-.385-.202-.67-.603-.854-.402-.184-1.03-.376-1.882-.577-.435-.1-.87-.234-1.305-.401a4.141 4.141 0 0 1-1.167-.678 3.37 3.37 0 0 1-.84-1.054c-.218-.418-.327-.92-.327-1.505 0-.753.159-1.393.477-1.92a4.039 4.039 0 0 1 1.23-1.293 5.466 5.466 0 0 1 1.668-.74 7.2 7.2 0 0 1 1.82-.238c.937 0 1.852.146 2.748.439.895.293 1.652.732 2.27 1.317L43.096 8.54Zm13.1 1.13c0-.653-.205-1.213-.615-1.682-.41-.468-1.025-.703-1.845-.703-.401 0-.77.063-1.104.189a2.86 2.86 0 0 0-.878.514 2.542 2.542 0 0 0-.602.765 2.24 2.24 0 0 0-.251.916h5.295Zm3.789 1.58v.502c0 .168-.008.327-.025.477h-9.06c.034.351.139.67.314.954.176.284.402.53.678.74.276.21.585.372.928.49.343.116.699.175 1.067.175.652 0 1.204-.121 1.656-.364.452-.242.82-.556 1.104-.94l2.861 1.806a5.787 5.787 0 0 1-2.321 1.97c-.962.46-2.079.69-3.35.69a7.993 7.993 0 0 1-2.66-.44 6.46 6.46 0 0 1-2.196-1.279 5.927 5.927 0 0 1-1.48-2.07c-.36-.82-.54-1.757-.54-2.811 0-1.02.175-1.945.527-2.773a6.268 6.268 0 0 1 1.43-2.108 6.377 6.377 0 0 1 2.133-1.343 7.294 7.294 0 0 1 2.66-.476c.92 0 1.765.154 2.535.464.77.31 1.43.757 1.982 1.343.553.585.983 1.296 1.293 2.133.31.836.464 1.79.464 2.86Z" clip-rule="evenodd"/></svg>