<svg xmlns="http://www.w3.org/2000/svg" width="12" height="13" fill="none"><path fill="#32425F" fill-opacity=".5" d="M5.437 3.313c0-.305.235-.563.563-.563a.57.57 0 0 1 .562.563v2.906L8.555 7.53c.257.188.328.54.14.797a.538.538 0 0 1-.773.14l-2.25-1.5a.577.577 0 0 1-.235-.468V3.312ZM6 .5c3.305 0 6 2.695 6 6 0 3.328-2.695 6-6 6-3.328 0-6-2.672-6-6 0-3.305 2.672-6 6-6Zm-4.875 6A4.871 4.871 0 0 0 6 11.375c2.672 0 4.875-2.18 4.875-4.875 0-2.672-2.203-4.875-4.875-4.875-2.695 0-4.875 2.203-4.875 4.875Z"/></svg>