<svg xmlns="http://www.w3.org/2000/svg" width="14" height="15" fill="none"><path fill="#D0001B" d="M2 .5h10c1.094 0 2 .906 2 2v10c0 1.125-.906 2-2 2H2c-1.125 0-2-.875-2-2v-10c0-1.094.875-2 2-2Zm2.469 4.469c-.313.312-.313.781 0 1.062L5.937 7.5 4.47 8.969c-.313.312-.313.781 0 1.062a.684.684 0 0 0 1.031 0l1.469-1.469 1.468 1.47c.313.312.782.312 1.063 0 .313-.282.313-.75 0-1.063L8.031 7.5 9.5 6.031c.313-.281.313-.75 0-1.062-.281-.282-.75-.282-1.063 0L6.97 6.437 5.5 4.97a.736.736 0 0 0-1.031 0Z"/></svg>