<svg xmlns="http://www.w3.org/2000/svg" width="14" height="15" fill="none"><path fill="#32425F" fill-opacity=".67" d="M4.375 7.75A2.608 2.608 0 0 1 7 5.125a2.626 2.626 0 0 1 0 5.25A2.608 2.608 0 0 1 4.375 7.75ZM7 6.437c-.738 0-1.313.602-1.313 1.313 0 .738.575 1.313 1.313 1.313.71 0 1.313-.575 1.313-1.313A1.33 1.33 0 0 0 7 6.437ZM8.012.75c.601 0 1.12.438 1.258 1.012l.218.902c.246.11.465.246.657.383l.902-.274a1.326 1.326 0 0 1 1.504.602l1.011 1.777c.301.52.192 1.176-.246 1.586l-.656.63c0 .136.027.273.027.382 0 .137-.027.273-.027.383l.656.656a1.29 1.29 0 0 1 .246 1.586l-1.011 1.777c-.301.52-.93.766-1.504.602l-.902-.274c-.192.137-.41.274-.657.383l-.218.903a1.29 1.29 0 0 1-1.258.984H5.96a1.29 1.29 0 0 1-1.258-.984l-.219-.903a3.768 3.768 0 0 1-.656-.383l-.902.274a1.326 1.326 0 0 1-1.504-.602L.41 10.375a1.29 1.29 0 0 1 .246-1.586l.656-.656v-.766l-.656-.629A1.29 1.29 0 0 1 .41 5.152l1.012-1.777c.3-.52.93-.766 1.504-.602l.902.274c.192-.137.41-.274.656-.383l.22-.902C4.84 1.187 5.358.75 5.96.75h2.05ZM5.605 3.594l-.3.136a3.638 3.638 0 0 0-.957.547l-.274.22L2.57 4.03 1.56 5.81l1.12 1.066-.027.328c-.027.192-.027.383-.027.547 0 .191 0 .383.027.574l.028.328L1.559 9.72l1.011 1.777 1.504-.465.274.219c.273.219.601.41.957.547l.3.137.356 1.504h2.05l.356-1.504.301-.137c.355-.137.684-.328.957-.547l.273-.219 1.504.465 1.012-1.777-1.121-1.067.027-.328c.028-.191.055-.383.055-.574a4.1 4.1 0 0 0-.055-.547l-.027-.328 1.121-1.066-1.012-1.778-1.504.465-.273-.219a3.638 3.638 0 0 0-.957-.547l-.3-.136-.356-1.531H5.96l-.356 1.53Z"/></svg>